<?xml version="1.0" encoding="utf-8"?>
<!-- Generator: Adobe Illustrator 19.0.0, SVG Export Plug-In . SVG Version: 6.00 Build 0)  -->
<svg version="1.1" id="Blithchron" xmlns="http://www.w3.org/2000/svg" xmlns:xlink="http://www.w3.org/1999/xlink" x="0px" y="0px"
	 viewBox="0 0 960 560" style="enable-background:new 0 0 960 560;" xml:space="preserve">
<style type="text/css">
	.st0{clip-path:url(#B_1_);fill:none;stroke:#000000;stroke-width:20;stroke-miterlimit:10;}
	.st1{clip-path:url(#l_1_);fill:none;stroke:#000000;stroke-width:20;stroke-miterlimit:10;}
	.st2{clip-path:url(#i_1_);fill:none;stroke:#000000;stroke-width:20;stroke-miterlimit:10;}
	.st3{clip-path:url(#t_1_);fill:none;stroke:#000000;stroke-width:20;stroke-miterlimit:10;}
	.st4{clip-path:url(#h1_1_);fill:none;stroke:#000000;stroke-width:20;stroke-miterlimit:10;}
	.st5{clip-path:url(#c_1_);fill:none;stroke:#000000;stroke-width:19;stroke-miterlimit:10;}
	.st6{clip-path:url(#h2_1_);fill:none;stroke:#000000;stroke-width:19;stroke-miterlimit:10;}
	.st7{clip-path:url(#r_1_);fill:none;stroke:#000000;stroke-width:19;stroke-miterlimit:10;}
	.st8{clip-path:url(#o_1_);fill:none;stroke:#000000;stroke-width:19;stroke-miterlimit:10;}
	.st9{clip-path:url(#n_1_);fill:none;stroke:#000000;stroke-width:19;stroke-miterlimit:10;}
</style>
<g id="B-grp">
	<defs>
		<path id="B" d="M356.4,255.1c4.8,1.3,7.2,6.2,7.2,12.1c0,19.2-20.9,35.5-40.9,35.5c-8,0-13.1-6.4-13.1-10.9c0-2.1,0.4-3.6,0.4-3.6
			s0.1,0.8,1.1,1.9c1.5,1.7,5.1,3.9,13.5,3.9c23.6,0,41.5-33,26.5-33c-3.8,0-11.4,1.7-15,2.7c-2.8,8.7-4.7,16.5-4.7,20.4
			c-1.9,0-7-1.9-7-5.1c0-11,16.9-55.5,23.4-58.4c3.5-1.6,8.6,2.3,7.4,3.4c-5.4,5.2-11.7,18.5-16.3,31.5c22.8-4.4,36.7-40.2,13-40.2
			c-17.2,0-52.3,16.6-54.7,38.7c0,0.7,0.7,1.7,0.7,2.3c0,2.8-8.3-4.2-8.3-7.8c0-10.1,26.8-39.9,62-39.9c30.4,0,21.7,32.6,4.8,46
			L356.4,255.1z"/>
	</defs>
	<clipPath id="B_1_">
		<use xlink:href="#B"  style="overflow:visible;"/>
	</clipPath>
	<path id="B_x5F_path_x5F_2" class="st0" d="M289.7,259.1l4.9-14.1c0,0,13-25.7,42.1-30.9c29-5.2,30,5.2,30,5.2s7.4,17.6-14.7,33.8
		l-13,6c0,0,16.3-4.1,20.5,2.8s-4.5,20.9-4.5,20.9s-14.5,17.2-31.3,16.5c-16.8-0.7-17.5-15.9-17.5-15.9"/>
	<path id="B_x5F_path_x5F_1" class="st0" d="M354.9,217.8c0,0-25.7,29.4-27.9,71.7"/>
</g>
<g id="l-grp">
	<defs>
		<path id="l" d="M392.4,261.1h2.8c0,0-3.6,7.2-9.4,15.1c-3.1,4.3-9.9,13.5-14.6,12.6c-11.3-2.1,0.4-35.8,10.1-56.1
			c3.2-7.1,8.4-15.4,9.5-15.4c4.7,0,6.7,3.8,6.7,3.8c-1.1,0.7-6.7,9.8-7.5,11.4c-7.6,14.5-17.2,38.6-14.6,48.2
			C382,279,392.4,261.1,392.4,261.1z"/>
	</defs>
	<clipPath id="l_1_">
		<use xlink:href="#l"  style="overflow:visible;"/>
	</clipPath>
	<path id="l_x5F_path" class="st1" d="M397.5,212.6l-13.2,21.6c0,0-12.6,28.9-12.4,38.5c0.1,9.5,2.4,12.5,2.4,12.5
		s8.4-7.5,12.9-12.5c4.5-5,8.5-16.1,8.5-16.1"/>
</g>
<g id="i-grp">
	<defs>
		<path id="i" d="M397,282.9c4,0,15.9-22,15.9-22h2.9c0,0-10.5,27.5-21.4,27.5c-18.8,0,3.9-45.6,8-45.6s6.6,3.6,6.6,3.6
			c-5.2,3.4-18.6,36.4-12.3,36.4H397z M412.4,238.5c-2.5,0-6-1.2-6.2-6.6c0-2.3,2.1-5.6,3.5-6.7c1.3-1.1,7.1,2.7,7.1,3.9
			c0,0-3.2,3.8-4.3,9.4H412.4z"/>
	</defs>
	<clipPath id="i_1_">
		<use xlink:href="#i"  style="overflow:visible;"/>
	</clipPath>
	<path id="i_x5F_path_x5F_2" class="st2" d="M415.9,223.3c0,0-9.5,11.2-8.7,16.5"/>
	<path id="i_x5F_path_x5F_1" class="st2" d="M408.3,241.2c0,0-17.3,22.1-15.4,36.2c0,0,0.4,7.4,1.1,8.1s5,0.6,9.9-6.1
		c4.9-6.7,12.8-22.3,12.8-22.3"/>
</g>
<g id="t-grp">
	<defs>
		<path id="t" d="M460.5,229.1c0.5,0,0.9,2.5-1.1,4.6c-1.5-1.2-13.4-1.6-26.3-1.2c-7.6,14.5-17.2,38.6-14.6,48.2
			c6.6-1.7,17-19.6,17-19.6h2.8c0,0-3.6,7.2-9.4,15.1c-3.1,4.3-9.9,13.5-14.6,12.6c-11.3-2.1,0.4-35.8,10-56.1
			c-12.1,0.7-22.9,1.9-24.7,3.6c0,0-0.5-4.8,2.8-8.2c0.9-0.9,12.1-0.9,24.3-0.7c3.2-6.2,5.9-10.3,7-10.3c4.7,0,6.7,3.8,6.7,3.8
			c-1.1,0.7-2.9,3.2-5.1,6.8c12.7,0.4,24.4,1.1,24.7,1.1L460.5,229.1z"/>
	</defs>
	<clipPath id="t_1_">
		<use xlink:href="#t"  style="overflow:visible;"/>
	</clipPath>
	<path id="t_x5F_path_x5F_2" class="st3" d="M396.2,232.5c0,0,47.2-5.3,66.9,0"/>
	<path id="t_x5F_path_x5F_1" class="st3" d="M440.2,214.4c0,0-19.3,26.1-22.3,45.2c0,0-1.4,7.3-3.2,20c-1.8,12.7,7.3,2.7,7.3,2.7
		s18.4-22.5,18.3-24.7"/>
</g>
<g id="h1-grp">
	<defs>
		<path id="h1" d="M478.9,261.4h2.9c0,0-10.5,27.5-21.4,27.5c-13,0-6-22.1,0.8-35.5c-8,6.2-14.2,15.7-23.4,35c0,0.4,0,0.7,0,0.9
			c-0.1,0-0.3,0-0.4,0v-0.1c-2.1-0.3-6.6-2.1-6.6-5.1c0-11,17-63,23.6-65.9c3.5-1.6,8.6,2.3,7.4,3.4c-7.6,7.5-17.3,35.4-21.7,53.5
			c6.7-15.9,16.2-25.2,27.1-31.4c0.5-0.5,0.9-0.8,1.2-0.8c4.2,0,6.6,3.6,6.6,3.6c-5.2,3.4-18.6,36.4-12.3,36.4c4,0,15.9-22,15.9-22
			L478.9,261.4z"/>
	</defs>
	<clipPath id="h1_1_">
		<use xlink:href="#h1"  style="overflow:visible;"/>
	</clipPath>
	<path id="h1_x5F_path" class="st4" d="M461.8,214c0,0-22.4,28.1-28.7,79.1c0,0,13.8-29.8,17.3-32c0,0,12.5-14.9,16.8-14.5
		c4.3,0.4-2.4,9.1-2.4,9.1s-9.3,16-7.6,22.2c1.7,6.1-0.6,7.6,6.5,7.3c7.1-0.4,18.2-27.5,18.2-27.5"/>
</g>
<g id="c-grp">
	<defs>
		<path id="c" d="M510.5,260.9c0,0,0.3,0,2.9,0c-2.7,6.3-16.7,27.9-28.1,27.9c-9.4,0-12.6-9.5-11.1-18.8
			c1.9-11.8,11.1-30.1,24.8-30.1c8.2,0,8.4,9,6.3,9c0,0-1.3-0.8-5.6-0.8c-13.5,0-21.4,30-15.3,34.6c13-0.1,25.9-21.4,25.9-21.4
			L510.5,260.9z M486.4,282.9c0,0-0.1,0-0.3,0H486.4z"/>
	</defs>
	<clipPath id="c_1_">
		<use xlink:href="#c"  style="overflow:visible;"/>
	</clipPath>
	<path id="c_x5F_path" class="st5" d="M509.9,245.2c0,0-15.5-7.5-24.6,8.3s-6.1,27.8-6.1,27.8s2.3,8.7,13,2.1s22.3-27.4,22.1-26.7"
		/>
</g>
<g id="h2_x5F_grp">
	<defs>
		<path id="h2" d="M553.8,261.4h2.9c0,0-10.5,27.5-21.4,27.5c-13,0-6-22.1,0.8-35.5c-8,6.2-14.2,15.7-23.4,35c0,0.4,0,0.7,0,0.9
			c-0.1,0-0.3,0-0.4,0v-0.1c-2.1-0.3-6.6-2.1-6.6-5.1c0-11,17-63,23.6-65.9c3.5-1.6,8.6,2.3,7.4,3.4c-7.6,7.5-17.3,35.4-21.7,53.5
			c6.7-15.9,16.2-25.2,27.1-31.4c0.5-0.5,0.9-0.8,1.2-0.8c4.2,0,6.6,3.6,6.6,3.6c-5.2,3.4-18.6,36.4-12.3,36.4c4,0,15.9-22,15.9-22
			L553.8,261.4z"/>
	</defs>
	<clipPath id="h2_1_">
		<use xlink:href="#h2"  style="overflow:visible;"/>
	</clipPath>
	<path id="h2_x5F_path" class="st6" d="M536.6,213.9c0,0-24.4,38.7-29,78.7c0,0,11.5-20.8,15.8-28.3c4.3-7.6,18.8-18.2,18.8-18.2
		s4.1-1.1,1.5,3s-2.6,4.1-2.6,4.1s-11,20.5-8.7,26.4c0,0,0.6,9.8,9.9,3.2c0,0,13.7-19.6,14.6-23.9"/>
</g>
<g id="r_x5F_grp">
	<defs>
		<path id="r" d="M583.3,240.8c2.8-0.7,7.4,1.6,6.8,2.1c-5.1,5.1-9,12.7-9.2,22c-0.5,0-4.7-0.5-4.7-5.2c0-2.5,0.8-5.8,1.7-8.8
			c-6.8,4.3-14.5,17.2-20.5,37.7l-0.3,0.8c-0.8,0-1.7,0.1-2.3,0.1c-1.2,0-2.4,0-3.5-0.7c-0.7-0.4-1.2-0.9-1.6-1.6
			c-0.8-1.3-1.2-2.9-1.5-4.4c-0.1-1.3-0.1-2.5-0.1-3.9c0.1-1.5,0.3-2.9,0.5-4.4c0.3-1.6,0.7-3.2,1.1-4.8c0.4-1.6,0.9-3.2,1.5-4.8
			c0.5-1.6,1.2-3.2,1.9-4.8c0.7-1.6,1.3-3.2,2-4.8c0.7-1.5,1.3-2.9,2-4.4c0.7-1.3,1.3-2.5,2-3.8c0.7-1.1,1.3-2.1,2-3.2
			c0.5-0.8,1.1-1.6,1.7-2.3c0.4-0.4,0.8-0.8,1.3-1.1c0.1,0,0.3,0,0.4,0c4.2,0,6.6,3.6,6.6,3.6c-0.7-0.3-5.1,7.1-5.5,7.8
			c-2.5,5-4.8,10.1-6.4,15.4c-0.8,2.8-1.5,5.6-1.9,8.4c6.6-16.1,14.2-28.5,24.8-35c0.3-0.3,0.7-0.5,1.1-0.7c0.1,0,0.3-0.1,0.4-0.1
			v0.1L583.3,240.8z"/>
	</defs>
	<clipPath id="r_1_">
		<use xlink:href="#r"  style="overflow:visible;"/>
	</clipPath>
	<path id="r_x5F_path" class="st7" d="M570.7,238.1c0,0-21.9,25.3-18.8,55c0,0,1.8-1.8,4-7.7c2.2-5.9,8.7-21.1,8.7-21.1
		s8.9-15.9,15.9-19.5c7-3.6,2,4,2,4s-8.4,15.5-3.4,19.4"/>
</g>
<g id="o-grp">
	<defs>
		<path id="o" d="M616.2,268c5.9-1.3,11-5.2,11-5.2v3.6c0,0-5.1,4.4-12.7,5.4c-0.8,1.5-1.6,2.9-2.5,4.3c-2.1,3.2-4.7,6.3-7.8,8.7
			c-3.1,2.4-6.8,4.2-10.7,4.6c-2.1,0.1-4.4-0.1-6.3-1.3c-2.7-1.7-3.8-5.1-4.3-8.2c-1.2-7.8,0.3-15.8,3.2-23c0.7-1.5,1.3-2.9,2.5-4
			c0.7-0.5,1.5-0.9,2.3-1.2c0.7-3.1,2.3-6,4.7-8c2.4-2,5.5-3.1,8.6-3.5c4.6-0.5,9.5,0.5,12.5,3.9c1.9,2,2.8,4.7,3.1,7.4
			c0.3,2.7-0.1,5.5-0.8,8.2c-0.7,2.8-1.6,5.6-2.8,8.3L616.2,268z M594,283.4c2.9-0.5,8.7-2.8,14.2-11.8c-6.3-0.9-12.3-4.4-15.3-9.6
			c-1.2,4.2-2.1,8.6-1.9,13c0.1,2.1,0.5,4.6,1.6,6.4c0.3,0.4,0.7,1.2,1.2,1.9L594,283.4z M609.9,268.4c5.9-11.8,2.4-22.4-2-24.9
			c-9.9,1.2-10.9,12.3-4.4,20.8c1.9,2.4,4.2,3.6,6.6,4.2H609.9z"/>
	</defs>
	<clipPath id="o_1_">
		<use xlink:href="#o"  style="overflow:visible;"/>
	</clipPath>
	<path id="o_x5F_path" class="st8" d="M593.8,255.1c0,0-4-0.6-4.6,5.2c0,0-4.2,13.1,0,24.1c0,0,7.5,5.7,15.6-3.8
		c8.1-9.5,10.2-17,10.2-17s3.4-15.5-1-17.9c0,0-4.7-9.3-16.3,0.8c-11.7,10.1,9.5,23,9.5,23s13.3,2.2,23.2-6.3"/>
</g>
<g id="n-grp">
	<defs>
		<path id="n" d="M676.3,249.8c0-1.2,1.2-0.7,1.6-0.3c3.6,3.8,3.8,5,3.8,8c0,10-18.1,36.8-34.6,36.8c-14.2,0-3.4-30,4.6-44.6
			c-0.1,0.1-0.3,0.3-0.4,0.3c-7.2,5.8-14.7,16.9-22.4,32.6c-0.8,1.7-1.7,3.6-2.7,5.6v0.1c0.1,0.7-6-0.5-6.6-4.2
			c-0.3-1.6-0.1-3.9,0.3-6.4c0.8-14.3,13.3-38.2,16.2-38.2c4.2,0,6.6,3.6,6.6,3.6c-3.5,2.1-11,18.6-13.8,29.6
			c6.7-15.3,16.9-24.4,27.6-30.4c0.3-0.3,0.5-0.4,0.8-0.4c4.2,0,6.6,3.6,6.6,3.6c-5.2,3.4-21,44.9-14.7,44.9
			c8.3,0,26.9-28,26.9-40.7H676.3z"/>
	</defs>
	<clipPath id="n_1_">
		<use xlink:href="#n"  style="overflow:visible;"/>
	</clipPath>
	<path id="n_x5F_path" class="st9" d="M641.9,238.4c0,0-24,29.7-19.7,54c0,0,10.9-27.7,16.8-31.8c0,0,18.8-23.6,26.9-21
		c0,0-13.7,8.6-18.4,33.3c0,0-5.1,18-1,19.5c4.1,1.6,13.1-5.2,13.1-5.2s18.9-14.9,22-41.7"/>
</g>
</svg>
