<?xml version="1.0" encoding="iso-8859-1"?>
<!-- Generator: Adobe Illustrator 19.0.0, SVG Export Plug-In . SVG Version: 6.00 Build 0)  -->
<svg version="1.1" id="Layer_1" xmlns="http://www.w3.org/2000/svg" xmlns:xlink="http://www.w3.org/1999/xlink" x="0px" y="0px"
	 viewBox="0 0 512.004 512.004" style="enable-background:new 0 0 512.004 512.004;" xml:space="preserve">
<g>
	<g>
		<path style="fill:#F0C419;" d="M139.67,88.483c-8.563,8.775-15.281,17.452-15.281,17.452
			C59.286,207.453,71.424,512.004,71.424,512.004h35.31l25.591-61.793C124.072,202.589,139.591,88.986,139.67,88.483"/>
		<path style="fill:#F0C419;" d="M373.042,88.483c8.563,8.775,15.281,17.452,15.281,17.452
			c59.215,101.517,52.966,406.069,52.966,406.069h-35.31l-25.591-61.793C388.64,202.589,373.121,88.986,373.042,88.483"/>
		<path style="fill:#F0C419;" d="M380.39,441.379L380.39,441.379c8.254-247.614-7.265-352.388-7.345-352.892
			c-9.516-9.746-21.31-19.606-28.857-17.867c0,0,9.931-70.621-88.276-70.621s-88.276,70.621-88.276,70.621
			c-7.548-1.739-18.458,8.121-27.966,17.867c-0.079,0.503-15.598,105.278-7.345,352.892l0,0
			c16.666,22.228,42.831,35.31,70.621,35.31h106.823C337.558,476.69,363.715,463.607,380.39,441.379"/>
	</g>
	<g>
		<path style="fill:#F29C1F;" d="M132.322,441.379c14.468,19.297,36.096,31.665,59.727,34.604
			c12.429-48.19,19.721-105.419,19.721-167.018c0-95.965-17.505-181.716-44.959-238.38l0,0c-6.568-0.803-15.386,6.294-23.64,14.38
			c-1.183,1.165-2.348,2.339-3.505,3.522c-0.062,0.397-9.463,69.297-9.754,216.505C129.93,344.523,130.601,389.809,132.322,441.379"
			/>
		<path style="fill:#F29C1F;" d="M345.007,70.585L345.007,70.585c-27.463,56.673-44.959,142.415-44.959,238.38
			c0,61.652,7.309,118.925,19.756,167.133c23.958-2.737,45.939-15.192,60.584-34.719c1.721-51.571,2.401-96.856,2.41-136.386
			c-0.282-147.2-9.693-216.108-9.754-216.505c-1.156-1.183-2.348-2.366-3.557-3.531C361.073,76.871,351.619,69.773,345.007,70.585"
			/>
	</g>
	<path style="fill:#D25627;" d="M309.769,476.69H202.947c-19.359,0-37.853-6.471-52.966-17.832v44.314
		c0,4.873,3.946,8.828,8.828,8.828h194.207c4.873,0,8.828-3.955,8.828-8.828V459.52C346.88,470.466,328.749,476.69,309.769,476.69"
		/>
	<path style="fill:#F29C1F;" d="M278.864,81.65l18.538-23.172c4.626-5.773,0.503-14.336-6.894-14.336h-69.199
		c-7.398,0-11.52,8.563-6.894,14.336l18.538,23.172c3.354,4.184,8.422,6.63,13.789,6.63h18.335
		C270.442,88.279,275.509,85.834,278.864,81.65"/>
	<g>
		<path style="fill:#D25627;" d="M344.184,185.379c-4.873,0-8.828-3.946-8.828-8.828V70.621c0-4.882,3.955-8.828,8.828-8.828
			c4.873,0,8.828,3.946,8.828,8.828v105.931C353.012,181.433,349.057,185.379,344.184,185.379"/>
		<path style="fill:#D25627;" d="M167.633,185.379c-4.873,0-8.828-3.946-8.828-8.828V70.621c0-4.882,3.955-8.828,8.828-8.828
			c4.873,0,8.828,3.946,8.828,8.828v105.931C176.46,181.433,172.506,185.379,167.633,185.379"/>
		<path style="fill:#D25627;" d="M388.322,467.862v1.501L405.978,512h35.31c0,0,0.141-16.967,0-44.138H388.322z"/>
		<path style="fill:#D25627;" d="M124.357,467.862v1.501L106.702,512h-35.31c0,0-0.715-17.028-0.865-44.138H124.357z"/>
		<path style="fill:#D25627;" d="M353.021,388.414c-2.684,0-5.332-1.218-7.071-3.531l-26.483-35.31
			c-2.922-3.902-2.136-9.437,1.766-12.359c3.919-2.922,9.437-2.136,12.359,1.766l26.483,35.31c2.922,3.902,2.136,9.437-1.766,12.359
			C356.72,387.84,354.857,388.414,353.021,388.414"/>
		<path style="fill:#D25627;" d="M158.796,388.414c-1.836,0-3.699-0.574-5.288-1.766c-3.902-2.922-4.687-8.457-1.766-12.359
			l26.483-35.31c2.922-3.902,8.457-4.687,12.359-1.766c3.902,2.922,4.687,8.457,1.766,12.359l-26.483,35.31
			C164.128,387.196,161.48,388.414,158.796,388.414"/>
		<path style="fill:#D25627;" d="M382.564,353.103h54.819c-1.615-25.821-3.84-52.798-6.912-79.448h-47.881
			C382.864,297.666,382.882,324.175,382.564,353.103"/>
		<path style="fill:#D25627;" d="M73.176,353.103h56.973c-0.318-28.928-0.3-55.437-0.026-79.448H79.646
			C76.627,300.306,74.562,327.283,73.176,353.103"/>
	</g>
	<path style="fill:#F29C1F;" d="M273.754,141.241h-35.31c-4.873,0-8.828-3.946-8.828-8.828s3.955-8.828,8.828-8.828h35.31
		c4.873,0,8.828,3.946,8.828,8.828S278.626,141.241,273.754,141.241"/>
</g>
<g>
</g>
<g>
</g>
<g>
</g>
<g>
</g>
<g>
</g>
<g>
</g>
<g>
</g>
<g>
</g>
<g>
</g>
<g>
</g>
<g>
</g>
<g>
</g>
<g>
</g>
<g>
</g>
<g>
</g>
</svg>
